<?xml version="1.0" encoding="UTF-8"?>
<svg xmlns="http://www.w3.org/2000/svg" viewBox="0 0 899.84 448.17">
  <defs>
    <style>
      .cls-1, .cls-2, .cls-3, .cls-4, .cls-5, .cls-6, .cls-7 {
        fill: none;
        stroke-linecap: round;
        stroke-linejoin: round;
      }

      .cls-1, .cls-2, .cls-5 {
        stroke: #3b4856;
      }

      .cls-2 {
        stroke-dasharray: 0 0 0 5;
        stroke-width: 1.5px;
      }

      .cls-2, .cls-8, .cls-9 {
        opacity: .4;
      }

      .cls-10 {
        fill: #fff;
      }

      .cls-11 {
        fill: #ffc100;
      }

      .cls-12 {
        fill: #d8006c;
      }

      .cls-13 {
        fill: #2a94ea;
      }

      .cls-14, .cls-9 {
        fill: #3b4856;
      }

      .cls-3 {
        stroke: #ffc100;
      }

      .cls-3, .cls-5, .cls-6, .cls-7 {
        stroke-width: 2px;
      }

      .cls-4 {
        stroke: #fff;
        stroke-width: 4px;
      }

      .cls-6 {
        stroke: #d8006c;
      }

      .cls-7 {
        stroke: #2a94ea;
      }

      .cls-15 {
        opacity: .5;
      }
    </style>
  </defs>
  <g id="Back">
    <rect class="cls-10" width="899.84" height="448.17"/>
  </g>
  <g id="Maket">
    <line class="cls-2" x1="20.16" y1="327.86" x2="425.89" y2="327.86"/>
    <line class="cls-2" x1="205.31" y1="123.36" x2="425.89" y2="123.36"/>
    <line class="cls-5" x1="196.31" y1="286.96" x2="205.31" y2="286.96"/>
    <line class="cls-5" x1="196.31" y1="246.06" x2="205.31" y2="246.06"/>
    <rect class="cls-10" x="169.31" y="237.82" width="35.38" height="18.4"/>
    <line class="cls-5" x1="196.31" y1="205.16" x2="205.31" y2="205.16"/>
    <line class="cls-5" x1="196.31" y1="164.26" x2="205.31" y2="164.26"/>
    <line class="cls-5" x1="196.31" y1="123.36" x2="205.31" y2="123.36"/>
    <line class="cls-5" x1="39.13" y1="393.96" x2="39.13" y2="384.96"/>
    <line class="cls-5" x1="94.94" y1="393.96" x2="94.94" y2="384.96"/>
    <line class="cls-5" x1="150.75" y1="393.96" x2="150.75" y2="384.96"/>
    <line class="cls-5" x1="206.56" y1="393.96" x2="206.56" y2="384.96"/>
    <line class="cls-5" x1="318.18" y1="393.96" x2="318.18" y2="384.96"/>
    <line class="cls-5" x1="262.37" y1="393.96" x2="262.37" y2="384.96"/>
    <line class="cls-5" x1="373.99" y1="393.96" x2="373.99" y2="384.96"/>
    <path class="cls-7" d="M39.13,305.62h0c6.04-7.43,10.59-15.96,13.41-25.11l33.08-107.56c1.24-4.02,4.95-6.77,9.16-6.77h0c4.2,0,7.91,2.74,9.16,6.75l35.6,114.85c7.39,23.84,29.44,40.08,54.39,40.08h155.83"/>
    <path class="cls-14" d="M228.8,88.43c.21-.89,.28-1.12,2.33-1.12,.63,0,.79,0,.79-.44,0-.23-.26-.23-.35-.23-.47,0-1,.05-1.47,.05h-3.13c-.44,0-.96-.05-1.4-.05-.19,0-.44,0-.44,.44,0,.23,.21,.23,.56,.23,1.42,0,1.42,.19,1.42,.44,0,.05,0,.19-.09,.54l-3.15,12.56c-.21,.82-.26,1.05-1.89,1.05-.44,0-.68,0-.68,.42,0,.26,.14,.26,.61,.26h10.46c.51,0,.54-.02,.7-.44l1.8-4.97c.05-.12,.09-.26,.09-.33,0-.14-.12-.23-.23-.23-.02,0-.14,0-.19,.09-.05,.02-.05,.07-.23,.51-.75,2.05-1.8,4.69-5.74,4.69h-2.24c-.33,0-.37,0-.51-.02-.26-.02-.28-.07-.28-.26,0-.16,.05-.3,.09-.51l3.18-12.68Z"/>
    <line class="cls-2" x1="20.16" y1="123.36" x2="147.37" y2="123.36"/>
    <g>
      <line class="cls-5" x1="19.84" y1="383.96" x2="423.72" y2="383.96"/>
      <polygon class="cls-14" points="417.09 392.13 415.73 390.67 422.95 383.96 415.73 377.24 417.09 375.78 425.89 383.96 417.09 392.13"/>
    </g>
    <path class="cls-6" d="M35.63,130.61h32.71c28.16,0,52.77,19.01,59.89,46.26l32.27,123.56c4.22,16.16,18.82,27.44,35.52,27.44h98.41"/>
    <rect class="cls-10" x="150.2" y="266.52" width="38.98" height="25.84"/>
    <g>
      <line class="cls-5" x1="206.31" y1="83.88" x2="206.31" y2="383.76"/>
      <polygon class="cls-14" points="198.13 90.5 199.6 91.87 206.31 84.64 213.03 91.87 214.49 90.5 206.31 81.71 198.13 90.5"/>
    </g>
    <path class="cls-14" d="M422.01,407.16c-.75,.14-1.03,.7-1.03,1.14,0,.56,.44,.75,.77,.75,.7,0,1.19-.61,1.19-1.24,0-.98-1.12-1.42-2.1-1.42-1.42,0-2.22,1.4-2.43,1.84-.54-1.75-1.98-1.84-2.4-1.84-2.38,0-3.64,3.06-3.64,3.57,0,.09,.09,.21,.26,.21,.19,0,.23-.14,.28-.23,.79-2.59,2.36-3.08,3.04-3.08,1.05,0,1.26,.98,1.26,1.54,0,.51-.14,1.05-.42,2.17l-.79,3.2c-.35,1.4-1.03,2.69-2.26,2.69-.12,0-.7,0-1.19-.3,.84-.16,1.03-.86,1.03-1.14,0-.47-.35-.75-.79-.75-.56,0-1.17,.49-1.17,1.24,0,.98,1.1,1.42,2.1,1.42,1.12,0,1.91-.89,2.4-1.84,.37,1.38,1.54,1.84,2.4,1.84,2.38,0,3.64-3.06,3.64-3.57,0-.12-.09-.21-.23-.21-.21,0-.23,.12-.3,.3-.63,2.05-1.98,3.01-3.04,3.01-.82,0-1.26-.61-1.26-1.56,0-.51,.09-.89,.47-2.43l.82-3.18c.35-1.4,1.14-2.43,2.22-2.43,.05,0,.7,0,1.19,.3Z"/>
    <g>
      <path class="cls-11" d="M248.87,245.36s0-.07-.07-.14c-1.07-1.1-3.95-4.09-3.95-11.37s2.83-10.25,3.97-11.42c0-.02,.05-.07,.05-.14s-.07-.12-.16-.12c-.26,0-2.24,1.73-3.39,4.3-1.17,2.59-1.49,5.11-1.49,7.35,0,1.68,.16,4.53,1.56,7.54,1.12,2.43,3.04,4.13,3.32,4.13,.12,0,.16-.05,.16-.14Z"/>
      <path class="cls-11" d="M270.28,233.85c0-1.68-.16-4.53-1.56-7.54-1.12-2.43-3.04-4.13-3.32-4.13-.07,0-.16,.02-.16,.14,0,.05,.02,.07,.05,.12,1.12,1.17,3.97,4.13,3.97,11.39s-2.83,10.25-3.97,11.42c-.02,.05-.05,.07-.05,.12,0,.12,.09,.14,.16,.14,.26,0,2.24-1.73,3.39-4.3,1.17-2.59,1.49-5.11,1.49-7.35Z"/>
      <path class="cls-11" d="M262.49,229.34c-.75,.14-1.03,.7-1.03,1.14,0,.56,.44,.75,.77,.75,.7,0,1.19-.61,1.19-1.24,0-.98-1.12-1.42-2.1-1.42-1.42,0-2.22,1.4-2.43,1.84-.54-1.75-1.98-1.84-2.4-1.84-2.38,0-3.64,3.06-3.64,3.57,0,.09,.09,.21,.26,.21,.19,0,.23-.14,.28-.23,.79-2.59,2.36-3.08,3.04-3.08,1.05,0,1.26,.98,1.26,1.54,0,.51-.14,1.05-.42,2.17l-.79,3.2c-.35,1.4-1.03,2.69-2.26,2.69-.12,0-.7,0-1.19-.3,.84-.16,1.03-.86,1.03-1.14,0-.47-.35-.75-.79-.75-.56,0-1.17,.49-1.17,1.24,0,.98,1.1,1.42,2.1,1.42,1.12,0,1.91-.89,2.4-1.84,.37,1.38,1.54,1.84,2.4,1.84,2.38,0,3.64-3.06,3.64-3.57,0-.12-.09-.21-.23-.21-.21,0-.23,.12-.3,.3-.63,2.05-1.98,3.01-3.04,3.01-.82,0-1.26-.61-1.26-1.56,0-.51,.09-.89,.47-2.43l.82-3.18c.35-1.4,1.14-2.43,2.22-2.43,.05,0,.7,0,1.19,.3Z"/>
      <path class="cls-11" d="M239,228.81c0-.12-.09-.21-.21-.21-.19,0-1.1,.84-1.54,1.66-.42-1.05-1.14-1.68-2.15-1.68-2.64,0-5.49,3.41-5.49,6.86,0,2.31,1.35,3.67,2.94,3.67,1.24,0,2.26-.93,2.76-1.47l.02,.02-.89,3.5-.21,.84c-.21,.7-.56,.7-1.66,.72-.26,0-.49,0-.49,.44,0,.16,.14,.23,.3,.23,.33,0,.75-.05,1.07-.05h2.38c.35,0,.75,.05,1.1,.05,.14,0,.42,0,.42-.44,0-.23-.19-.23-.54-.23-1.1,0-1.17-.16-1.17-.35,0-.12,.02-.14,.09-.44l3.25-13.12Zm-3.29,7.28c-.12,.4-.12,.44-.44,.89-.51,.65-1.54,1.66-2.64,1.66-.96,0-1.49-.86-1.49-2.24,0-1.28,.72-3.9,1.17-4.88,.79-1.63,1.89-2.47,2.8-2.47,1.54,0,1.84,1.91,1.84,2.1,0,.02-.07,.33-.09,.37l-1.14,4.58Z"/>
    </g>
    <g>
      <path class="cls-13" d="M73.04,268.26c-.16,.7-.26,.89-1.21,.89-.28,0-.51,0-.51,.44,0,.05,.02,.23,.28,.23,.3,0,.63-.05,.93-.05h1c.49,0,1.68,.05,2.17,.05,.14,0,.42,0,.42-.42,0-.26-.16-.26-.56-.26-1.07,0-1.14-.16-1.14-.35,0-.28,1.05-4.3,1.19-4.83,.26,.65,.89,1.56,2.1,1.56,2.64,0,5.49-3.43,5.49-6.86,0-2.15-1.21-3.67-2.97-3.67-1.49,0-2.76,1.45-3.01,1.77-.19-1.17-1.1-1.77-2.03-1.77-.68,0-1.21,.33-1.66,1.21-.42,.84-.75,2.26-.75,2.36s.09,.21,.26,.21c.19,0,.21-.02,.35-.56,.35-1.38,.79-2.76,1.73-2.76,.54,0,.72,.37,.72,1.07,0,.56-.07,.79-.16,1.21l-2.64,10.51Zm4.04-10.25c.16-.65,.82-1.33,1.19-1.66,.26-.23,1.03-.89,1.91-.89,1.03,0,1.49,1.03,1.49,2.24,0,1.12-.65,3.76-1.24,4.97-.58,1.26-1.66,2.38-2.73,2.38-1.59,0-1.84-2.01-1.84-2.1,0-.07,.05-.26,.07-.37l1.14-4.58Z"/>
      <path class="cls-13" d="M93.77,271.78s0-.07-.07-.14c-1.07-1.1-3.95-4.09-3.95-11.37s2.83-10.25,3.97-11.42c0-.02,.05-.07,.05-.14s-.07-.12-.16-.12c-.26,0-2.24,1.73-3.39,4.3-1.17,2.59-1.49,5.11-1.49,7.35,0,1.68,.16,4.53,1.56,7.54,1.12,2.43,3.04,4.13,3.32,4.13,.12,0,.16-.05,.16-.14Z"/>
      <path class="cls-13" d="M115.18,260.27c0-1.68-.16-4.53-1.56-7.54-1.12-2.43-3.04-4.13-3.32-4.13-.07,0-.16,.02-.16,.14,0,.05,.02,.07,.05,.12,1.12,1.17,3.97,4.13,3.97,11.39s-2.83,10.25-3.97,11.42c-.02,.05-.05,.07-.05,.12,0,.12,.09,.14,.16,.14,.26,0,2.24-1.73,3.39-4.3,1.17-2.59,1.49-5.11,1.49-7.35Z"/>
      <path class="cls-13" d="M107.39,255.77c-.75,.14-1.03,.7-1.03,1.14,0,.56,.44,.75,.77,.75,.7,0,1.19-.61,1.19-1.24,0-.98-1.12-1.42-2.1-1.42-1.42,0-2.22,1.4-2.43,1.84-.54-1.75-1.98-1.84-2.4-1.84-2.38,0-3.64,3.06-3.64,3.57,0,.09,.09,.21,.26,.21,.19,0,.23-.14,.28-.23,.79-2.59,2.36-3.08,3.04-3.08,1.05,0,1.26,.98,1.26,1.54,0,.51-.14,1.05-.42,2.17l-.79,3.2c-.35,1.4-1.03,2.69-2.26,2.69-.12,0-.7,0-1.19-.3,.84-.16,1.03-.86,1.03-1.14,0-.47-.35-.75-.79-.75-.56,0-1.17,.49-1.17,1.24,0,.98,1.1,1.42,2.1,1.42,1.12,0,1.91-.89,2.4-1.84,.37,1.38,1.54,1.84,2.4,1.84,2.38,0,3.64-3.06,3.64-3.57,0-.12-.09-.21-.23-.21-.21,0-.23,.12-.3,.3-.63,2.05-1.98,3.01-3.04,3.01-.82,0-1.26-.61-1.26-1.56,0-.51,.09-.89,.47-2.43l.82-3.18c.35-1.4,1.14-2.43,2.22-2.43,.05,0,.7,0,1.19,.3Z"/>
    </g>
    <path class="cls-3" d="M372.06,327.86h-23.46c-24.41,0-47.95-9.71-66.03-27.25l-40.91-39.67c-9.88-9.58-22.73-14.88-36.06-14.88h0c-13.33,0-26.18,5.3-36.06,14.88l-40.91,39.67c-18.09,17.54-41.62,27.25-66.03,27.25h-23.46"/>
    <g>
      <circle class="cls-9" cx="263.92" cy="327.86" r="3"/>
      <g class="cls-15">
        <path class="cls-14" d="M263.92,325.86c1.1,0,2,.9,2,2s-.9,2-2,2-2-.9-2-2,.9-2,2-2m0-1c-1.66,0-3,1.34-3,3s1.34,3,3,3,3-1.34,3-3-1.34-3-3-3h0Z"/>
      </g>
    </g>
    <g>
      <circle class="cls-9" cx="242.39" cy="327.86" r="3"/>
      <g class="cls-15">
        <path class="cls-14" d="M242.39,325.86c1.1,0,2,.9,2,2s-.9,2-2,2-2-.9-2-2,.9-2,2-2m0-1c-1.66,0-3,1.34-3,3s1.34,3,3,3,3-1.34,3-3-1.34-3-3-3h0Z"/>
      </g>
    </g>
    <g>
      <circle class="cls-9" cx="222.87" cy="327.86" r="3"/>
      <g class="cls-15">
        <path class="cls-14" d="M222.87,325.86c1.1,0,2,.9,2,2s-.9,2-2,2-2-.9-2-2,.9-2,2-2m0-1c-1.66,0-3,1.34-3,3s1.34,3,3,3,3-1.34,3-3-1.34-3-3-3h0Z"/>
      </g>
    </g>
    <g>
      <circle class="cls-9" cx="206.31" cy="327.86" r="3"/>
      <g class="cls-15">
        <path class="cls-14" d="M206.31,325.86c1.1,0,2,.9,2,2s-.9,2-2,2-2-.9-2-2,.9-2,2-2m0-1c-1.66,0-3,1.34-3,3s1.34,3,3,3,3-1.34,3-3-1.34-3-3-3h0Z"/>
      </g>
    </g>
    <g>
      <circle class="cls-9" cx="179.8" cy="327.86" r="3"/>
      <g class="cls-15">
        <path class="cls-14" d="M179.8,325.86c1.1,0,2,.9,2,2s-.9,2-2,2-2-.9-2-2,.9-2,2-2m0-1c-1.66,0-3,1.34-3,3s1.34,3,3,3,3-1.34,3-3-1.34-3-3-3h0Z"/>
      </g>
    </g>
    <g>
      <circle class="cls-9" cx="147.2" cy="327.86" r="3"/>
      <g class="cls-15">
        <path class="cls-14" d="M147.2,325.86c1.1,0,2,.9,2,2s-.9,2-2,2-2-.9-2-2,.9-2,2-2m0-1c-1.66,0-3,1.34-3,3s1.34,3,3,3,3-1.34,3-3-1.34-3-3-3h0Z"/>
      </g>
    </g>
    <g>
      <circle class="cls-9" cx="142.39" cy="327.86" r="3"/>
      <g class="cls-15">
        <path class="cls-14" d="M142.39,325.86c1.1,0,2,.9,2,2s-.9,2-2,2-2-.9-2-2,.9-2,2-2m0-1c-1.66,0-3,1.34-3,3s1.34,3,3,3,3-1.34,3-3-1.34-3-3-3h0Z"/>
      </g>
    </g>
    <g>
      <g>
        <line class="cls-4" x1="242.39" y1="338.38" x2="242.39" y2="378.72"/>
        <polygon class="cls-10" points="242.23 378.59 242.26 378.56 242.39 378.7 242.53 378.56 242.56 378.59 242.39 378.76 242.23 378.59"/>
      </g>
      <g class="cls-8">
        <line class="cls-1" x1="242.39" y1="338.38" x2="242.39" y2="377.68"/>
        <polygon class="cls-14" points="238.3 374.37 239.04 373.68 242.39 377.29 245.75 373.68 246.48 374.37 242.39 378.76 238.3 374.37"/>
      </g>
    </g>
    <g>
      <g>
        <line class="cls-4" x1="222.27" y1="338.38" x2="222.27" y2="378.72"/>
        <polygon class="cls-10" points="222.11 378.59 222.14 378.56 222.27 378.7 222.41 378.56 222.43 378.59 222.27 378.76 222.11 378.59"/>
      </g>
      <g class="cls-8">
        <line class="cls-1" x1="222.27" y1="338.38" x2="222.27" y2="377.68"/>
        <polygon class="cls-14" points="218.18 374.37 218.91 373.68 222.27 377.29 225.63 373.68 226.36 374.37 222.27 378.76 218.18 374.37"/>
      </g>
    </g>
    <g>
      <g>
        <line class="cls-4" x1="206.56" y1="366.54" x2="206.56" y2="378.72"/>
        <polygon class="cls-10" points="206.39 378.59 206.42 378.56 206.56 378.7 206.69 378.56 206.72 378.59 206.56 378.76 206.39 378.59"/>
      </g>
      <g class="cls-8">
        <line class="cls-1" x1="206.56" y1="366.54" x2="206.56" y2="377.68"/>
        <polygon class="cls-14" points="202.47 374.37 203.2 373.68 206.56 377.29 209.91 373.68 210.65 374.37 206.56 378.76 202.47 374.37"/>
      </g>
    </g>
    <g>
      <g>
        <line class="cls-4" x1="263.92" y1="366.54" x2="263.92" y2="378.72"/>
        <polygon class="cls-10" points="263.76 378.59 263.79 378.56 263.92 378.7 264.05 378.56 264.08 378.59 263.92 378.76 263.76 378.59"/>
      </g>
      <g class="cls-8">
        <line class="cls-1" x1="263.92" y1="366.54" x2="263.92" y2="377.68"/>
        <polygon class="cls-14" points="259.83 374.37 260.56 373.68 263.92 377.29 267.28 373.68 268.01 374.37 263.92 378.76 259.83 374.37"/>
      </g>
    </g>
    <g>
      <g>
        <line class="cls-4" x1="145.2" y1="361.54" x2="145.2" y2="373.72"/>
        <polygon class="cls-10" points="145.04 373.59 145.07 373.56 145.2 373.7 145.33 373.56 145.36 373.59 145.2 373.76 145.04 373.59"/>
      </g>
      <g class="cls-8">
        <line class="cls-1" x1="145.2" y1="361.54" x2="145.2" y2="372.68"/>
        <polygon class="cls-14" points="141.11 369.37 141.84 368.68 145.2 372.29 148.56 368.68 149.29 369.37 145.2 373.76 141.11 369.37"/>
      </g>
    </g>
    <g>
      <g>
        <line class="cls-4" x1="179.3" y1="338.38" x2="179.3" y2="366.5"/>
        <polygon class="cls-10" points="179.14 366.37 179.17 366.34 179.3 366.49 179.44 366.34 179.47 366.37 179.3 366.54 179.14 366.37"/>
      </g>
      <g class="cls-8">
        <line class="cls-1" x1="179.3" y1="338.38" x2="179.3" y2="365.46"/>
        <polygon class="cls-14" points="175.21 362.15 175.95 361.46 179.3 365.08 182.66 361.46 183.39 362.15 179.3 366.54 175.21 362.15"/>
      </g>
    </g>
    <g>
      <g>
        <path class="cls-12" d="M159.41,172.82s0-.07-.07-.14c-1.07-1.1-3.95-4.09-3.95-11.37s2.83-10.25,3.97-11.42c0-.02,.05-.07,.05-.14s-.07-.12-.16-.12c-.26,0-2.24,1.73-3.39,4.3-1.17,2.59-1.49,5.11-1.49,7.35,0,1.68,.16,4.53,1.56,7.54,1.12,2.43,3.04,4.13,3.32,4.13,.12,0,.16-.05,.16-.14Z"/>
        <path class="cls-12" d="M180.82,161.31c0-1.68-.16-4.53-1.56-7.54-1.12-2.43-3.04-4.13-3.32-4.13-.07,0-.16,.02-.16,.14,0,.05,.02,.07,.05,.12,1.12,1.17,3.97,4.13,3.97,11.39s-2.83,10.25-3.97,11.42c-.02,.05-.05,.07-.05,.12,0,.12,.09,.14,.16,.14,.26,0,2.24-1.73,3.39-4.3,1.17-2.59,1.49-5.11,1.49-7.35Z"/>
        <path class="cls-12" d="M173.03,156.8c-.75,.14-1.03,.7-1.03,1.14,0,.56,.44,.75,.77,.75,.7,0,1.19-.61,1.19-1.24,0-.98-1.12-1.42-2.1-1.42-1.42,0-2.22,1.4-2.43,1.84-.54-1.75-1.98-1.84-2.4-1.84-2.38,0-3.64,3.06-3.64,3.57,0,.09,.09,.21,.26,.21,.19,0,.23-.14,.28-.23,.79-2.59,2.36-3.08,3.04-3.08,1.05,0,1.26,.98,1.26,1.54,0,.51-.14,1.05-.42,2.17l-.79,3.2c-.35,1.4-1.03,2.69-2.26,2.69-.12,0-.7,0-1.19-.3,.84-.16,1.03-.86,1.03-1.14,0-.47-.35-.75-.79-.75-.56,0-1.17,.49-1.17,1.24,0,.98,1.1,1.42,2.1,1.42,1.12,0,1.91-.89,2.4-1.84,.37,1.38,1.54,1.84,2.4,1.84,2.38,0,3.64-3.06,3.64-3.57,0-.12-.09-.21-.23-.21-.21,0-.23,.12-.3,.3-.63,2.05-1.98,3.01-3.04,3.01-.82,0-1.26-.61-1.26-1.56,0-.51,.09-.89,.47-2.43l.82-3.18c.35-1.4,1.14-2.43,2.22-2.43,.05,0,.7,0,1.19,.3Z"/>
      </g>
      <path class="cls-12" d="M148.62,156.94c.47,0,.65,0,.65-.44,0-.23-.19-.23-.61-.23h-1.89c.44-2.4,.77-4.06,.96-4.81,.14-.56,.63-1.1,1.24-1.1,.49,0,.98,.21,1.21,.42-.91,.09-1.19,.77-1.19,1.17,0,.47,.35,.75,.79,.75,.47,0,1.17-.4,1.17-1.28,0-.98-.98-1.52-2.01-1.52s-1.98,.75-2.45,1.66c-.42,.82-.65,1.66-1.19,4.72h-1.56c-.44,0-.68,0-.68,.42,0,.26,.14,.26,.61,.26h1.49c-.42,2.17-1.38,7.45-1.91,9.95-.4,2.03-.75,3.74-1.91,3.74-.07,0-.75,0-1.17-.44,1.19-.09,1.19-1.12,1.19-1.14,0-.47-.35-.75-.79-.75-.47,0-1.17,.4-1.17,1.28,0,1,1.03,1.52,1.94,1.52,2.38,0,3.36-4.27,3.62-5.44,.42-1.8,1.56-8.01,1.68-8.71h1.98Z"/>
    </g>
  </g>
  <g id="Txt">
    <g>
      <path class="cls-14" d="M34.97,50.25h-2.93v-7.37c-.64,.4-1.3,.69-1.99,.88-.69,.18-1.44,.28-2.26,.28-.94,0-1.79-.12-2.54-.36-.75-.24-1.39-.61-1.92-1.1s-.93-1.13-1.21-1.91c-.28-.78-.42-1.69-.42-2.75v-4.87h2.95v4.8c0,1.19,.27,2.11,.82,2.76,.54,.66,1.42,.98,2.64,.98,.74,0,1.43-.08,2.09-.25,.66-.17,1.27-.44,1.85-.83v-7.46h2.93v17.21Z"/>
      <path class="cls-14" d="M43.92,40.05v10.2h-2.78v-10.2h-3.77v-2.26h10.39v2.26h-3.84Z"/>
      <path class="cls-14" d="M54.96,50.49c-.88,0-1.7-.14-2.45-.43-.75-.29-1.4-.71-1.96-1.26-.55-.55-.98-1.23-1.3-2.03-.31-.8-.47-1.72-.47-2.76s.16-1.96,.47-2.76c.31-.8,.74-1.48,1.3-2.03,.55-.55,1.2-.97,1.96-1.25,.75-.28,1.57-.42,2.45-.42s1.7,.14,2.45,.42c.75,.28,1.41,.7,1.97,1.25,.56,.55,1,1.23,1.32,2.03,.32,.8,.48,1.72,.48,2.76s-.16,1.96-.48,2.76c-.32,.8-.76,1.48-1.32,2.03-.56,.55-1.22,.97-1.97,1.26-.75,.29-1.57,.43-2.45,.43Zm0-2.3c.96,0,1.76-.34,2.39-1.01,.63-.67,.95-1.72,.95-3.15s-.32-2.46-.95-3.14c-.63-.68-1.43-1.02-2.39-1.02s-1.73,.34-2.36,1.02c-.63,.68-.95,1.73-.95,3.14s.32,2.48,.95,3.15c.63,.67,1.42,1.01,2.36,1.01Z"/>
      <path class="cls-14" d="M80.47,41.23l-3.67,7.82h-2.04l-3.46-7.9v9.1h-2.52v-12.46h3.82l3.41,7.73,3.6-7.73h3.65v12.46h-2.78v-9.02Z"/>
      <path class="cls-14" d="M96.27,45.96c0,.72-.13,1.35-.4,1.9-.26,.54-.63,.99-1.09,1.34-.46,.35-1.02,.62-1.66,.79-.64,.18-1.34,.26-2.11,.26h-4.63v-12.46h2.78v4.03h1.94c1.63,0,2.9,.34,3.8,1.01s1.36,1.71,1.36,3.12Zm-7.1-1.92v4.03h1.63c.77,0,1.4-.16,1.88-.47,.49-.31,.73-.83,.73-1.55s-.22-1.24-.65-1.55c-.43-.31-1.06-.47-1.87-.47h-1.73Zm11.3,6.21h-2.78v-12.46h2.78v12.46Z"/>
      <path class="cls-14" d="M113.28,45.67l-3.02,4.58h-2.74l4.39-6.48-3.96-5.98h3.17l2.74,4.1,2.66-4.1h2.74l-4.03,6.02,4.27,6.43h-3.17l-3.05-4.58Z"/>
      <path class="cls-14" d="M126.17,50.49c-.88,0-1.7-.14-2.45-.43-.75-.29-1.4-.71-1.96-1.26-.55-.55-.98-1.23-1.3-2.03-.31-.8-.47-1.72-.47-2.76s.16-1.96,.47-2.76c.31-.8,.74-1.48,1.3-2.03,.55-.55,1.2-.97,1.96-1.25,.75-.28,1.57-.42,2.45-.42s1.7,.14,2.45,.42c.75,.28,1.41,.7,1.97,1.25,.56,.55,1,1.23,1.32,2.03,.32,.8,.48,1.72,.48,2.76s-.16,1.96-.48,2.76c-.32,.8-.76,1.48-1.32,2.03-.56,.55-1.22,.97-1.97,1.26-.75,.29-1.57,.43-2.45,.43Zm0-2.3c.96,0,1.76-.34,2.39-1.01,.63-.67,.95-1.72,.95-3.15s-.32-2.46-.95-3.14c-.63-.68-1.43-1.02-2.39-1.02s-1.73,.34-2.36,1.02c-.63,.68-.95,1.73-.95,3.14s.32,2.48,.95,3.15c.63,.67,1.42,1.01,2.36,1.01Z"/>
      <path class="cls-14" d="M139.97,40.05v10.2h-2.78v-10.2h-3.77v-2.26h10.39v2.26h-3.84Z"/>
      <path class="cls-14" d="M148.68,46.48l5.76-8.69h2.74v12.46h-2.76v-8.64l-5.71,8.64h-2.78v-12.46h2.76v8.69Z"/>
      <path class="cls-14" d="M172.01,41.23l-3.67,7.82h-2.04l-3.46-7.9v9.1h-2.52v-12.46h3.82l3.41,7.73,3.6-7.73h3.65v12.46h-2.78v-9.02Z"/>
    </g>
    <g>
      <g>
        <path class="cls-14" d="M164.54,285.36c-.68,0-1.31-.14-1.89-.42-.58-.28-1.08-.73-1.5-1.33-.42-.61-.75-1.37-1-2.3-.24-.93-.37-2.03-.37-3.31,0-1.28,.11-2.38,.35-3.31,.24-.93,.56-1.69,.98-2.29,.42-.6,.92-1.04,1.5-1.32,.58-.28,1.21-.42,1.89-.43,.68,0,1.31,.14,1.88,.41,.57,.28,1.07,.71,1.49,1.3,.42,.59,.74,1.35,.98,2.27,.24,.92,.36,2.02,.36,3.3,0,1.28-.11,2.38-.34,3.31-.23,.93-.55,1.7-.96,2.31-.41,.61-.9,1.07-1.48,1.36s-1.2,.44-1.88,.45Zm-.03-1.58c.45,0,.85-.1,1.2-.3s.64-.53,.88-.98c.24-.45,.42-1.05,.54-1.79,.12-.74,.18-1.64,.18-2.71,0-1.07-.07-1.97-.19-2.71-.12-.74-.3-1.34-.55-1.79-.24-.45-.54-.78-.88-.98-.35-.2-.75-.3-1.2-.3-.45,0-.86,.1-1.21,.31-.35,.2-.65,.53-.9,.98-.25,.45-.43,1.05-.55,1.79-.12,.74-.19,1.64-.18,2.71,0,1.07,.07,1.97,.2,2.71,.13,.74,.31,1.33,.56,1.79,.24,.45,.54,.78,.89,.98,.35,.2,.76,.3,1.21,.29Z"/>
        <path class="cls-14" d="M171.73,287.27c.12-.13,.24-.29,.36-.48,.12-.19,.23-.38,.33-.57,.1-.19,.18-.38,.24-.56,.06-.18,.1-.34,.13-.47-.28-.07-.51-.2-.68-.42-.17-.21-.26-.46-.26-.76,0-.35,.11-.64,.33-.87,.22-.23,.52-.35,.89-.35,.37,0,.68,.12,.91,.38s.35,.59,.35,1.02c0,.28-.04,.57-.12,.87-.08,.3-.18,.59-.3,.87-.12,.28-.25,.54-.41,.77-.15,.23-.3,.42-.45,.57h-1.32Z"/>
        <path class="cls-14" d="M186.12,285.09l-9.14,.03v-1.88c1.2-.98,2.25-1.85,3.13-2.62,.88-.76,1.61-1.47,2.18-2.11,.57-.64,1-1.25,1.27-1.84,.28-.58,.42-1.19,.41-1.81,0-.79-.24-1.43-.72-1.91-.47-.49-1.17-.73-2.07-.72-.76,0-1.47,.19-2.12,.57-.65,.38-1.24,.85-1.75,1.43v-2.02c.5-.49,1.07-.89,1.71-1.18,.64-.3,1.38-.45,2.22-.45,.75,0,1.41,.1,1.99,.29s1.07,.48,1.46,.84c.39,.36,.7,.79,.9,1.3,.21,.51,.31,1.07,.32,1.68,0,.77-.15,1.5-.44,2.18-.3,.68-.74,1.37-1.32,2.05-.58,.68-1.3,1.39-2.16,2.12-.86,.73-1.84,1.53-2.94,2.38l7.06-.02v1.7Z"/>
      </g>
      <g>
        <path class="cls-14" d="M164.54,285.36c-.68,0-1.31-.14-1.89-.42-.58-.28-1.08-.73-1.5-1.33-.42-.61-.75-1.37-1-2.3-.24-.93-.37-2.03-.37-3.31,0-1.28,.11-2.38,.35-3.31,.24-.93,.56-1.69,.98-2.29,.42-.6,.92-1.04,1.5-1.32,.58-.28,1.21-.42,1.89-.43,.68,0,1.31,.14,1.88,.41,.57,.28,1.07,.71,1.49,1.3,.42,.59,.74,1.35,.98,2.27,.24,.92,.36,2.02,.36,3.3,0,1.28-.11,2.38-.34,3.31-.23,.93-.55,1.7-.96,2.31-.41,.61-.9,1.07-1.48,1.36s-1.2,.44-1.88,.45Zm-.03-1.58c.45,0,.85-.1,1.2-.3s.64-.53,.88-.98c.24-.45,.42-1.05,.54-1.79,.12-.74,.18-1.64,.18-2.71,0-1.07-.07-1.97-.19-2.71-.12-.74-.3-1.34-.55-1.79-.24-.45-.54-.78-.88-.98-.35-.2-.75-.3-1.2-.3-.45,0-.86,.1-1.21,.31-.35,.2-.65,.53-.9,.98-.25,.45-.43,1.05-.55,1.79-.12,.74-.19,1.64-.18,2.71,0,1.07,.07,1.97,.2,2.71,.13,.74,.31,1.33,.56,1.79,.24,.45,.54,.78,.89,.98,.35,.2,.76,.3,1.21,.29Z"/>
        <path class="cls-14" d="M171.73,287.27c.12-.13,.24-.29,.36-.48,.12-.19,.23-.38,.33-.57,.1-.19,.18-.38,.24-.56,.06-.18,.1-.34,.13-.47-.28-.07-.51-.2-.68-.42-.17-.21-.26-.46-.26-.76,0-.35,.11-.64,.33-.87,.22-.23,.52-.35,.89-.35,.37,0,.68,.12,.91,.38s.35,.59,.35,1.02c0,.28-.04,.57-.12,.87-.08,.3-.18,.59-.3,.87-.12,.28-.25,.54-.41,.77-.15,.23-.3,.42-.45,.57h-1.32Z"/>
        <path class="cls-14" d="M186.12,285.09l-9.14,.03v-1.88c1.2-.98,2.25-1.85,3.13-2.62,.88-.76,1.61-1.47,2.18-2.11,.57-.64,1-1.25,1.27-1.84,.28-.58,.42-1.19,.41-1.81,0-.79-.24-1.43-.72-1.91-.47-.49-1.17-.73-2.07-.72-.76,0-1.47,.19-2.12,.57-.65,.38-1.24,.85-1.75,1.43v-2.02c.5-.49,1.07-.89,1.71-1.18,.64-.3,1.38-.45,2.22-.45,.75,0,1.41,.1,1.99,.29s1.07,.48,1.46,.84c.39,.36,.7,.79,.9,1.3,.21,.51,.31,1.07,.32,1.68,0,.77-.15,1.5-.44,2.18-.3,.68-.74,1.37-1.32,2.05-.58,.68-1.3,1.39-2.16,2.12-.86,.73-1.84,1.53-2.94,2.38l7.06-.02v1.7Z"/>
      </g>
    </g>
    <g>
      <g>
        <path class="cls-14" d="M164.54,204.53c-.68,0-1.31-.14-1.89-.42-.58-.28-1.08-.73-1.5-1.33-.42-.61-.75-1.37-1-2.3-.24-.93-.37-2.03-.37-3.31,0-1.28,.11-2.38,.35-3.31,.24-.93,.56-1.69,.98-2.29,.42-.6,.92-1.04,1.5-1.32,.58-.28,1.21-.42,1.89-.43,.68,0,1.31,.14,1.88,.41,.57,.28,1.07,.71,1.49,1.3,.42,.59,.74,1.35,.98,2.27,.24,.92,.36,2.02,.36,3.3,0,1.28-.11,2.38-.34,3.31-.23,.93-.55,1.7-.96,2.31-.41,.61-.9,1.07-1.48,1.36s-1.2,.44-1.88,.45Zm-.03-1.58c.45,0,.85-.1,1.2-.3s.64-.53,.88-.98c.24-.45,.42-1.05,.54-1.79,.12-.74,.18-1.64,.18-2.71,0-1.07-.07-1.97-.19-2.71-.12-.74-.3-1.34-.55-1.79-.24-.45-.54-.78-.88-.98-.35-.2-.75-.3-1.2-.3-.45,0-.86,.1-1.21,.31-.35,.2-.65,.53-.9,.98-.25,.45-.43,1.05-.55,1.79-.12,.74-.19,1.64-.18,2.71,0,1.07,.07,1.97,.2,2.71,.13,.74,.31,1.33,.56,1.79,.24,.45,.54,.78,.89,.98,.35,.2,.76,.3,1.21,.29Z"/>
        <path class="cls-14" d="M171.73,206.45c.12-.13,.24-.29,.36-.48,.12-.19,.23-.38,.33-.57,.1-.19,.18-.38,.24-.56,.06-.18,.1-.34,.13-.47-.28-.07-.51-.2-.68-.42-.17-.21-.26-.46-.26-.76,0-.35,.11-.64,.33-.87,.22-.23,.52-.35,.89-.35,.37,0,.68,.12,.91,.38s.35,.59,.35,1.02c0,.28-.04,.57-.12,.87-.08,.3-.18,.59-.3,.87-.12,.28-.25,.54-.41,.77-.15,.23-.3,.42-.45,.57h-1.32Z"/>
        <path class="cls-14" d="M186.43,199.56c0,.73-.12,1.4-.36,2-.25,.6-.58,1.12-1,1.55-.43,.43-.93,.77-1.51,1-.58,.24-1.2,.35-1.87,.36-.91,0-1.68-.15-2.31-.45-.63-.3-1.15-.73-1.55-1.29-.4-.55-.7-1.21-.89-1.99-.19-.77-.29-1.62-.29-2.54,0-1.25,.11-2.4,.33-3.44,.22-1.04,.57-1.93,1.03-2.67,.46-.74,1.06-1.32,1.78-1.74,.73-.42,1.59-.63,2.59-.63,.72,0,1.31,.07,1.78,.21,.47,.15,.88,.32,1.24,.52v1.78c-.86-.58-1.87-.88-3.02-.87-.63,0-1.17,.14-1.64,.41-.47,.27-.86,.63-1.19,1.09-.33,.46-.58,1.01-.76,1.64-.19,.63-.3,1.31-.35,2.03,.44-.6,.94-1.05,1.52-1.35,.57-.29,1.2-.44,1.88-.45,.64,0,1.24,.1,1.8,.3,.56,.21,1.05,.51,1.46,.92,.42,.41,.74,.92,.98,1.52,.24,.6,.35,1.29,.36,2.06Zm-4.81,3.32c.39,0,.76-.07,1.11-.21,.35-.14,.66-.34,.93-.61s.48-.61,.64-1.01c.16-.41,.24-.88,.24-1.43,0-.53-.08-1.01-.24-1.42-.16-.41-.36-.76-.62-1.04-.26-.28-.55-.49-.88-.63-.33-.14-.66-.21-.99-.21-.44,0-.85,.08-1.23,.22-.38,.15-.71,.36-.98,.64-.27,.28-.49,.63-.65,1.04-.16,.41-.24,.89-.24,1.44,0,.96,.27,1.74,.79,2.33,.52,.59,1.23,.89,2.12,.88Z"/>
      </g>
      <g>
        <path class="cls-14" d="M164.54,204.53c-.68,0-1.31-.14-1.89-.42-.58-.28-1.08-.73-1.5-1.33-.42-.61-.75-1.37-1-2.3-.24-.93-.37-2.03-.37-3.31,0-1.28,.11-2.38,.35-3.31,.24-.93,.56-1.69,.98-2.29,.42-.6,.92-1.04,1.5-1.32,.58-.28,1.21-.42,1.89-.43,.68,0,1.31,.14,1.88,.41,.57,.28,1.07,.71,1.49,1.3,.42,.59,.74,1.35,.98,2.27,.24,.92,.36,2.02,.36,3.3,0,1.28-.11,2.38-.34,3.31-.23,.93-.55,1.7-.96,2.31-.41,.61-.9,1.07-1.48,1.36s-1.2,.44-1.88,.45Zm-.03-1.58c.45,0,.85-.1,1.2-.3s.64-.53,.88-.98c.24-.45,.42-1.05,.54-1.79,.12-.74,.18-1.64,.18-2.71,0-1.07-.07-1.97-.19-2.71-.12-.74-.3-1.34-.55-1.79-.24-.45-.54-.78-.88-.98-.35-.2-.75-.3-1.2-.3-.45,0-.86,.1-1.21,.31-.35,.2-.65,.53-.9,.98-.25,.45-.43,1.05-.55,1.79-.12,.74-.19,1.64-.18,2.71,0,1.07,.07,1.97,.2,2.71,.13,.74,.31,1.33,.56,1.79,.24,.45,.54,.78,.89,.98,.35,.2,.76,.3,1.21,.29Z"/>
        <path class="cls-14" d="M171.73,206.45c.12-.13,.24-.29,.36-.48,.12-.19,.23-.38,.33-.57,.1-.19,.18-.38,.24-.56,.06-.18,.1-.34,.13-.47-.28-.07-.51-.2-.68-.42-.17-.21-.26-.46-.26-.76,0-.35,.11-.64,.33-.87,.22-.23,.52-.35,.89-.35,.37,0,.68,.12,.91,.38s.35,.59,.35,1.02c0,.28-.04,.57-.12,.87-.08,.3-.18,.59-.3,.87-.12,.28-.25,.54-.41,.77-.15,.23-.3,.42-.45,.57h-1.32Z"/>
        <path class="cls-14" d="M186.43,199.56c0,.73-.12,1.4-.36,2-.25,.6-.58,1.12-1,1.55-.43,.43-.93,.77-1.51,1-.58,.24-1.2,.35-1.87,.36-.91,0-1.68-.15-2.31-.45-.63-.3-1.15-.73-1.55-1.29-.4-.55-.7-1.21-.89-1.99-.19-.77-.29-1.62-.29-2.54,0-1.25,.11-2.4,.33-3.44,.22-1.04,.57-1.93,1.03-2.67,.46-.74,1.06-1.32,1.78-1.74,.73-.42,1.59-.63,2.59-.63,.72,0,1.31,.07,1.78,.21,.47,.15,.88,.32,1.24,.52v1.78c-.86-.58-1.87-.88-3.02-.87-.63,0-1.17,.14-1.64,.41-.47,.27-.86,.63-1.19,1.09-.33,.46-.58,1.01-.76,1.64-.19,.63-.3,1.31-.35,2.03,.44-.6,.94-1.05,1.52-1.35,.57-.29,1.2-.44,1.88-.45,.64,0,1.24,.1,1.8,.3,.56,.21,1.05,.51,1.46,.92,.42,.41,.74,.92,.98,1.52,.24,.6,.35,1.29,.36,2.06Zm-4.81,3.32c.39,0,.76-.07,1.11-.21,.35-.14,.66-.34,.93-.61s.48-.61,.64-1.01c.16-.41,.24-.88,.24-1.43,0-.53-.08-1.01-.24-1.42-.16-.41-.36-.76-.62-1.04-.26-.28-.55-.49-.88-.63-.33-.14-.66-.21-.99-.21-.44,0-.85,.08-1.23,.22-.38,.15-.71,.36-.98,.64-.27,.28-.49,.63-.65,1.04-.16,.41-.24,.89-.24,1.44,0,.96,.27,1.74,.79,2.33,.52,.59,1.23,.89,2.12,.88Z"/>
      </g>
    </g>
    <g>
      <g>
        <path class="cls-14" d="M166.44,123.5h-1.82s-.04-12.07-.04-12.07l-3.95,3.05v-2.02s4.24-3.29,4.24-3.29h1.52s.05,14.33,.05,14.33Z"/>
        <path class="cls-14" d="M171.73,125.63c.12-.13,.24-.29,.36-.48,.12-.19,.23-.38,.33-.57,.1-.19,.18-.38,.24-.56,.06-.18,.1-.34,.13-.47-.28-.07-.51-.2-.68-.42-.17-.21-.26-.46-.26-.76,0-.35,.11-.64,.33-.87,.22-.23,.52-.35,.89-.35,.37,0,.68,.12,.91,.38s.35,.59,.35,1.02c0,.28-.04,.57-.12,.87-.08,.3-.18,.59-.3,.87-.12,.28-.25,.54-.41,.77-.15,.23-.3,.42-.45,.57h-1.32Z"/>
        <path class="cls-14" d="M181.54,123.65c-.68,0-1.31-.14-1.89-.42-.58-.28-1.08-.73-1.5-1.33s-.75-1.37-1-2.3c-.24-.93-.37-2.03-.37-3.31,0-1.28,.11-2.38,.35-3.31s.56-1.69,.98-2.29,.92-1.04,1.5-1.32c.58-.28,1.21-.42,1.89-.43s1.31,.14,1.88,.41c.57,.28,1.07,.71,1.49,1.3,.42,.59,.74,1.35,.98,2.27,.24,.92,.36,2.02,.36,3.3,0,1.28-.11,2.38-.34,3.31s-.55,1.7-.96,2.31c-.41,.61-.9,1.07-1.48,1.36s-1.2,.44-1.88,.45Zm-.03-1.58c.45,0,.85-.1,1.2-.3,.35-.2,.64-.53,.88-.98s.42-1.05,.54-1.79c.12-.74,.18-1.64,.18-2.71,0-1.07-.07-1.97-.19-2.71-.12-.74-.3-1.34-.55-1.79-.24-.45-.54-.78-.88-.98-.35-.2-.75-.3-1.2-.3-.45,0-.86,.1-1.21,.3-.35,.2-.65,.53-.9,.98s-.43,1.05-.55,1.79c-.12,.74-.19,1.64-.18,2.71,0,1.07,.07,1.97,.2,2.71,.13,.74,.31,1.34,.56,1.79,.24,.45,.54,.78,.89,.98,.35,.2,.76,.3,1.21,.3Z"/>
      </g>
      <g>
        <path class="cls-14" d="M166.44,123.5h-1.82s-.04-12.07-.04-12.07l-3.95,3.05v-2.02s4.24-3.29,4.24-3.29h1.52s.05,14.33,.05,14.33Z"/>
        <path class="cls-14" d="M171.73,125.63c.12-.13,.24-.29,.36-.48,.12-.19,.23-.38,.33-.57,.1-.19,.18-.38,.24-.56,.06-.18,.1-.34,.13-.47-.28-.07-.51-.2-.68-.42-.17-.21-.26-.46-.26-.76,0-.35,.11-.64,.33-.87,.22-.23,.52-.35,.89-.35,.37,0,.68,.12,.91,.38s.35,.59,.35,1.02c0,.28-.04,.57-.12,.87-.08,.3-.18,.59-.3,.87-.12,.28-.25,.54-.41,.77-.15,.23-.3,.42-.45,.57h-1.32Z"/>
        <path class="cls-14" d="M181.54,123.65c-.68,0-1.31-.14-1.89-.42-.58-.28-1.08-.73-1.5-1.33s-.75-1.37-1-2.3c-.24-.93-.37-2.03-.37-3.31,0-1.28,.11-2.38,.35-3.31s.56-1.69,.98-2.29,.92-1.04,1.5-1.32c.58-.28,1.21-.42,1.89-.43s1.31,.14,1.88,.41c.57,.28,1.07,.71,1.49,1.3,.42,.59,.74,1.35,.98,2.27,.24,.92,.36,2.02,.36,3.3,0,1.28-.11,2.38-.34,3.31s-.55,1.7-.96,2.31c-.41,.61-.9,1.07-1.48,1.36s-1.2,.44-1.88,.45Zm-.03-1.58c.45,0,.85-.1,1.2-.3,.35-.2,.64-.53,.88-.98s.42-1.05,.54-1.79c.12-.74,.18-1.64,.18-2.71,0-1.07-.07-1.97-.19-2.71-.12-.74-.3-1.34-.55-1.79-.24-.45-.54-.78-.88-.98-.35-.2-.75-.3-1.2-.3-.45,0-.86,.1-1.21,.3-.35,.2-.65,.53-.9,.98s-.43,1.05-.55,1.79c-.12,.74-.19,1.64-.18,2.71,0,1.07,.07,1.97,.2,2.71,.13,.74,.31,1.34,.56,1.79,.24,.45,.54,.78,.89,.98,.35,.2,.76,.3,1.21,.3Z"/>
      </g>
    </g>
    <g>
      <g>
        <path class="cls-14" d="M142.29,410.13l4.8-.02v1.6s-4.79,.02-4.79,.02v-1.6Z"/>
        <path class="cls-14" d="M155.75,416.99h-1.82s-.04-12.07-.04-12.07l-3.95,3.05v-2.02s4.24-3.29,4.24-3.29h1.52s.05,14.33,.05,14.33Z"/>
      </g>
      <g>
        <path class="cls-14" d="M142.29,410.13l4.8-.02v1.6s-4.79,.02-4.79,.02v-1.6Z"/>
        <path class="cls-14" d="M155.75,416.99h-1.82s-.04-12.07-.04-12.07l-3.95,3.05v-2.02s4.24-3.29,4.24-3.29h1.52s.05,14.33,.05,14.33Z"/>
      </g>
    </g>
    <g>
      <g>
        <path class="cls-14" d="M87.01,410.13l4.8-.02v1.6s-4.79,.02-4.79,.02v-1.6Z"/>
        <path class="cls-14" d="M103.15,416.98l-9.14,.03v-1.88c1.2-.98,2.25-1.85,3.13-2.62,.88-.76,1.61-1.47,2.18-2.11,.57-.64,1-1.25,1.27-1.84,.28-.58,.42-1.19,.41-1.82,0-.79-.24-1.42-.72-1.91-.47-.49-1.17-.73-2.07-.72-.76,0-1.47,.19-2.12,.57-.65,.38-1.24,.85-1.75,1.43v-2.02c.5-.5,1.07-.89,1.71-1.19,.64-.3,1.38-.44,2.22-.45,.75,0,1.41,.1,1.99,.29s1.07,.48,1.46,.84c.39,.36,.69,.79,.9,1.3,.21,.51,.31,1.07,.32,1.68,0,.77-.15,1.5-.44,2.18-.3,.68-.74,1.37-1.32,2.05-.58,.68-1.3,1.39-2.16,2.12s-1.84,1.53-2.94,2.38l7.06-.02v1.7Z"/>
      </g>
      <g>
        <path class="cls-14" d="M87.01,410.13l4.8-.02v1.6s-4.79,.02-4.79,.02v-1.6Z"/>
        <path class="cls-14" d="M103.15,416.98l-9.14,.03v-1.88c1.2-.98,2.25-1.85,3.13-2.62,.88-.76,1.61-1.47,2.18-2.11,.57-.64,1-1.25,1.27-1.84,.28-.58,.42-1.19,.41-1.82,0-.79-.24-1.42-.72-1.91-.47-.49-1.17-.73-2.07-.72-.76,0-1.47,.19-2.12,.57-.65,.38-1.24,.85-1.75,1.43v-2.02c.5-.5,1.07-.89,1.71-1.19,.64-.3,1.38-.44,2.22-.45,.75,0,1.41,.1,1.99,.29s1.07,.48,1.46,.84c.39,.36,.69,.79,.9,1.3,.21,.51,.31,1.07,.32,1.68,0,.77-.15,1.5-.44,2.18-.3,.68-.74,1.37-1.32,2.05-.58,.68-1.3,1.39-2.16,2.12s-1.84,1.53-2.94,2.38l7.06-.02v1.7Z"/>
      </g>
    </g>
    <g>
      <path class="cls-14" d="M206.35,417.21c-.68,0-1.31-.14-1.89-.42-.58-.28-1.08-.73-1.5-1.33s-.75-1.37-1-2.3c-.24-.93-.37-2.03-.37-3.31,0-1.28,.11-2.38,.35-3.31s.56-1.69,.98-2.29,.92-1.04,1.5-1.32c.58-.28,1.21-.42,1.89-.43,.68,0,1.31,.14,1.88,.41,.57,.28,1.07,.71,1.49,1.3,.42,.59,.74,1.35,.98,2.27,.24,.92,.36,2.02,.36,3.3,0,1.28-.11,2.38-.34,3.31-.23,.93-.55,1.7-.96,2.31-.41,.61-.9,1.07-1.48,1.36s-1.2,.44-1.88,.45Zm-.03-1.58c.45,0,.85-.1,1.2-.3,.35-.2,.64-.53,.88-.98s.42-1.05,.54-1.79c.12-.74,.18-1.64,.18-2.71,0-1.07-.07-1.97-.19-2.71-.12-.74-.3-1.34-.55-1.79-.24-.45-.54-.78-.88-.98-.35-.2-.75-.3-1.2-.3-.45,0-.86,.1-1.21,.3-.35,.2-.65,.53-.9,.98-.25,.45-.43,1.05-.55,1.79-.12,.74-.19,1.64-.18,2.71,0,1.07,.07,1.97,.2,2.71,.13,.74,.31,1.34,.56,1.79,.24,.45,.54,.78,.89,.98,.35,.2,.76,.3,1.21,.3Z"/>
      <path class="cls-14" d="M206.35,417.21c-.68,0-1.31-.14-1.89-.42-.58-.28-1.08-.73-1.5-1.33s-.75-1.37-1-2.3c-.24-.93-.37-2.03-.37-3.31,0-1.28,.11-2.38,.35-3.31s.56-1.69,.98-2.29,.92-1.04,1.5-1.32c.58-.28,1.21-.42,1.89-.43,.68,0,1.31,.14,1.88,.41,.57,.28,1.07,.71,1.49,1.3,.42,.59,.74,1.35,.98,2.27,.24,.92,.36,2.02,.36,3.3,0,1.28-.11,2.38-.34,3.31-.23,.93-.55,1.7-.96,2.31-.41,.61-.9,1.07-1.48,1.36s-1.2,.44-1.88,.45Zm-.03-1.58c.45,0,.85-.1,1.2-.3,.35-.2,.64-.53,.88-.98s.42-1.05,.54-1.79c.12-.74,.18-1.64,.18-2.71,0-1.07-.07-1.97-.19-2.71-.12-.74-.3-1.34-.55-1.79-.24-.45-.54-.78-.88-.98-.35-.2-.75-.3-1.2-.3-.45,0-.86,.1-1.21,.3-.35,.2-.65,.53-.9,.98-.25,.45-.43,1.05-.55,1.79-.12,.74-.19,1.64-.18,2.71,0,1.07,.07,1.97,.2,2.71,.13,.74,.31,1.34,.56,1.79,.24,.45,.54,.78,.89,.98,.35,.2,.76,.3,1.21,.3Z"/>
    </g>
    <g>
      <path class="cls-14" d="M264.31,417h-1.82s-.04-12.07-.04-12.07l-3.95,3.05v-2.02s4.24-3.29,4.24-3.29h1.52s.05,14.33,.05,14.33Z"/>
      <path class="cls-14" d="M264.31,417h-1.82s-.04-12.07-.04-12.07l-3.95,3.05v-2.02s4.24-3.29,4.24-3.29h1.52s.05,14.33,.05,14.33Z"/>
    </g>
    <g>
      <path class="cls-14" d="M323.08,416.99l-9.14,.03v-1.88c1.2-.98,2.25-1.85,3.13-2.62,.88-.76,1.61-1.47,2.18-2.11,.57-.64,1-1.26,1.27-1.84,.28-.58,.42-1.19,.41-1.81,0-.79-.24-1.42-.72-1.91-.47-.49-1.17-.73-2.07-.72-.76,0-1.47,.19-2.12,.57-.65,.38-1.24,.85-1.75,1.43v-2.02c.5-.5,1.07-.89,1.71-1.19,.64-.3,1.38-.45,2.22-.45,.75,0,1.41,.1,1.99,.29s1.07,.48,1.46,.84c.39,.36,.7,.79,.9,1.3,.21,.51,.31,1.07,.32,1.68,0,.77-.15,1.5-.44,2.18-.3,.68-.74,1.36-1.32,2.05-.58,.68-1.3,1.39-2.16,2.12s-1.84,1.52-2.94,2.38l7.06-.02v1.7Z"/>
      <path class="cls-14" d="M323.08,416.99l-9.14,.03v-1.88c1.2-.98,2.25-1.85,3.13-2.62,.88-.76,1.61-1.47,2.18-2.11,.57-.64,1-1.26,1.27-1.84,.28-.58,.42-1.19,.41-1.81,0-.79-.24-1.42-.72-1.91-.47-.49-1.17-.73-2.07-.72-.76,0-1.47,.19-2.12,.57-.65,.38-1.24,.85-1.75,1.43v-2.02c.5-.5,1.07-.89,1.71-1.19,.64-.3,1.38-.45,2.22-.45,.75,0,1.41,.1,1.99,.29s1.07,.48,1.46,.84c.39,.36,.7,.79,.9,1.3,.21,.51,.31,1.07,.32,1.68,0,.77-.15,1.5-.44,2.18-.3,.68-.74,1.36-1.32,2.05-.58,.68-1.3,1.39-2.16,2.12s-1.84,1.52-2.94,2.38l7.06-.02v1.7Z"/>
    </g>
    <g>
      <path class="cls-14" d="M378.71,412.85c0,.67-.12,1.27-.37,1.8-.25,.53-.6,.99-1.06,1.37-.45,.38-.99,.67-1.62,.88-.63,.2-1.32,.3-2.08,.31-.93,0-1.74-.11-2.42-.33-.68-.22-1.24-.52-1.66-.87v-2c.42,.42,.98,.79,1.68,1.1,.69,.31,1.5,.46,2.42,.46,.99,0,1.76-.24,2.33-.71s.85-1.12,.84-1.96c0-.8-.26-1.42-.77-1.87-.51-.45-1.3-.67-2.38-.66h-1.84s0-1.69,0-1.69h1.92c.76,0,1.37-.21,1.84-.61,.47-.4,.7-.98,.69-1.74,0-.68-.22-1.22-.67-1.61-.44-.39-1.08-.59-1.9-.58-.85,0-1.58,.17-2.19,.49-.61,.32-1.15,.7-1.65,1.12v-1.96c.46-.39,1.01-.7,1.65-.94,.64-.24,1.37-.37,2.2-.37,.68,0,1.29,.09,1.84,.26,.55,.18,1.01,.43,1.39,.76,.38,.33,.67,.73,.87,1.19,.2,.46,.3,.97,.31,1.53,0,.45-.06,.86-.2,1.22-.13,.36-.32,.67-.55,.94s-.5,.49-.81,.67c-.31,.18-.63,.31-.98,.39,.41,.06,.81,.19,1.19,.38,.38,.18,.72,.42,1.01,.71,.29,.29,.53,.63,.69,1.02,.17,.39,.25,.83,.25,1.31Z"/>
      <path class="cls-14" d="M378.71,412.85c0,.67-.12,1.27-.37,1.8-.25,.53-.6,.99-1.06,1.37-.45,.38-.99,.67-1.62,.88-.63,.2-1.32,.3-2.08,.31-.93,0-1.74-.11-2.42-.33-.68-.22-1.24-.52-1.66-.87v-2c.42,.42,.98,.79,1.68,1.1,.69,.31,1.5,.46,2.42,.46,.99,0,1.76-.24,2.33-.71s.85-1.12,.84-1.96c0-.8-.26-1.42-.77-1.87-.51-.45-1.3-.67-2.38-.66h-1.84s0-1.69,0-1.69h1.92c.76,0,1.37-.21,1.84-.61,.47-.4,.7-.98,.69-1.74,0-.68-.22-1.22-.67-1.61-.44-.39-1.08-.59-1.9-.58-.85,0-1.58,.17-2.19,.49-.61,.32-1.15,.7-1.65,1.12v-1.96c.46-.39,1.01-.7,1.65-.94,.64-.24,1.37-.37,2.2-.37,.68,0,1.29,.09,1.84,.26,.55,.18,1.01,.43,1.39,.76,.38,.33,.67,.73,.87,1.19,.2,.46,.3,.97,.31,1.53,0,.45-.06,.86-.2,1.22-.13,.36-.32,.67-.55,.94s-.5,.49-.81,.67c-.31,.18-.63,.31-.98,.39,.41,.06,.81,.19,1.19,.38,.38,.18,.72,.42,1.01,.71,.29,.29,.53,.63,.69,1.02,.17,.39,.25,.83,.25,1.31Z"/>
    </g>
    <g>
      <g>
        <path class="cls-14" d="M31.2,409.95l4.8-.02v1.6s-4.79,.02-4.79,.02v-1.6Z"/>
        <path class="cls-14" d="M47.45,412.66c0,.67-.12,1.27-.37,1.8-.25,.53-.6,.99-1.06,1.37-.45,.38-.99,.67-1.62,.88-.63,.2-1.32,.3-2.08,.31-.93,0-1.74-.11-2.42-.33-.68-.22-1.24-.52-1.66-.88v-2c.42,.43,.98,.79,1.68,1.1s1.5,.46,2.42,.46c.99,0,1.76-.24,2.33-.71s.85-1.12,.84-1.96c0-.8-.26-1.42-.77-1.87-.51-.45-1.3-.67-2.38-.66h-1.84s0-1.69,0-1.69h1.92c.76,0,1.37-.21,1.84-.61s.7-.98,.69-1.74c0-.68-.22-1.22-.67-1.61-.44-.39-1.08-.59-1.9-.58-.85,0-1.58,.17-2.19,.49-.61,.32-1.15,.7-1.65,1.13v-1.96c.46-.39,1.01-.7,1.65-.95s1.37-.36,2.2-.37c.68,0,1.29,.08,1.84,.26,.55,.18,1.01,.43,1.39,.76,.38,.33,.67,.73,.87,1.19,.2,.46,.3,.97,.31,1.53,0,.45-.06,.86-.2,1.22-.13,.36-.31,.67-.55,.94-.23,.27-.5,.49-.81,.67-.31,.18-.63,.31-.98,.39,.41,.06,.81,.19,1.19,.38,.38,.19,.72,.42,1.01,.71,.29,.29,.53,.62,.69,1.02,.17,.39,.25,.83,.25,1.31Z"/>
      </g>
      <g>
        <path class="cls-14" d="M31.2,409.95l4.8-.02v1.6s-4.79,.02-4.79,.02v-1.6Z"/>
        <path class="cls-14" d="M47.45,412.66c0,.67-.12,1.27-.37,1.8-.25,.53-.6,.99-1.06,1.37-.45,.38-.99,.67-1.62,.88-.63,.2-1.32,.3-2.08,.31-.93,0-1.74-.11-2.42-.33-.68-.22-1.24-.52-1.66-.88v-2c.42,.43,.98,.79,1.68,1.1s1.5,.46,2.42,.46c.99,0,1.76-.24,2.33-.71s.85-1.12,.84-1.96c0-.8-.26-1.42-.77-1.87-.51-.45-1.3-.67-2.38-.66h-1.84s0-1.69,0-1.69h1.92c.76,0,1.37-.21,1.84-.61s.7-.98,.69-1.74c0-.68-.22-1.22-.67-1.61-.44-.39-1.08-.59-1.9-.58-.85,0-1.58,.17-2.19,.49-.61,.32-1.15,.7-1.65,1.13v-1.96c.46-.39,1.01-.7,1.65-.95s1.37-.36,2.2-.37c.68,0,1.29,.08,1.84,.26,.55,.18,1.01,.43,1.39,.76,.38,.33,.67,.73,.87,1.19,.2,.46,.3,.97,.31,1.53,0,.45-.06,.86-.2,1.22-.13,.36-.31,.67-.55,.94-.23,.27-.5,.49-.81,.67-.31,.18-.63,.31-.98,.39,.41,.06,.81,.19,1.19,.38,.38,.19,.72,.42,1.01,.71,.29,.29,.53,.62,.69,1.02,.17,.39,.25,.83,.25,1.31Z"/>
      </g>
    </g>
  </g>
</svg>