<svg width="102" height="102" viewBox="0 0 102 102" fill="none" xmlns="http://www.w3.org/2000/svg">
<path d="M38.5742 38.4993L50.9996 1" stroke="#2C4942" stroke-miterlimit="10"/>
<path d="M38.5742 38.4984L42.3184 1.75781" stroke="#2C4942" stroke-miterlimit="10"/>
<path d="M38.576 38.4985L33.9023 4.01367" stroke="#2C4942" stroke-miterlimit="10"/>
<path d="M38.5731 38.4988L26 7.69727" stroke="#2C4942" stroke-miterlimit="10"/>
<path d="M38.5733 38.4999L18.8594 12.6992" stroke="#2C4942" stroke-miterlimit="10"/>
<path d="M38.5752 38.4999L12.6992 18.8613" stroke="#2C4942" stroke-miterlimit="10"/>
<path d="M38.5731 38.4988L7.69922 25.998" stroke="#2C4942" stroke-miterlimit="10"/>
<path d="M38.5748 38.4997L4.01758 33.8984" stroke="#2C4942" stroke-miterlimit="10"/>
<path d="M38.5747 38.5L1.76172 42.3165" stroke="#2C4942" stroke-miterlimit="10"/>
<path d="M38.5746 38.5L1 51.0007" stroke="#2C4942" stroke-miterlimit="10"/>
<path d="M38.5747 38.5L1.76172 59.682" stroke="#2C4942" stroke-miterlimit="10"/>
<path d="M38.5748 38.5L4.01758 68.0998" stroke="#2C4942" stroke-miterlimit="10"/>
<path d="M38.5731 38.5L7.69922 75.9993" stroke="#2C4942" stroke-miterlimit="10"/>
<path d="M38.5752 38.5L12.6992 83.1401" stroke="#2C4942" stroke-miterlimit="10"/>
<path d="M38.5733 38.5L18.8594 89.3021" stroke="#2C4942" stroke-miterlimit="10"/>
<path d="M38.5731 38.5L26 94.3001" stroke="#2C4942" stroke-miterlimit="10"/>
<path d="M38.576 38.5L33.9023 97.9834" stroke="#2C4942" stroke-miterlimit="10"/>
<path d="M38.5742 38.5L42.3184 100.239" stroke="#2C4942" stroke-miterlimit="10"/>
<path d="M38.5742 38.5L50.9996 101.001" stroke="#2C4942" stroke-miterlimit="10"/>
<path d="M38.5742 38.5L59.6838 100.239" stroke="#2C4942" stroke-miterlimit="10"/>
<path d="M38.5742 38.5L68.1016 97.9834" stroke="#2C4942" stroke-miterlimit="10"/>
<path d="M38.5742 38.5L76.0011 94.3001" stroke="#2C4942" stroke-miterlimit="10"/>
<path d="M38.5742 38.5L83.139 89.3021" stroke="#2C4942" stroke-miterlimit="10"/>
<path d="M38.5742 38.5L89.3039 83.1401" stroke="#2C4942" stroke-miterlimit="10"/>
<path d="M38.5742 38.5L94.3019 75.9993" stroke="#2C4942" stroke-miterlimit="10"/>
<path d="M38.5742 38.5L97.9852 68.0998" stroke="#2C4942" stroke-miterlimit="10"/>
<path d="M38.5742 38.5L100.241 59.682" stroke="#2C4942" stroke-miterlimit="10"/>
<path d="M38.5742 38.5L101 51.0007" stroke="#2C4942" stroke-miterlimit="10"/>
<path d="M38.5742 38.5L100.241 42.3165" stroke="#2C4942" stroke-miterlimit="10"/>
<path d="M38.5742 38.4997L97.9852 33.8984" stroke="#2C4942" stroke-miterlimit="10"/>
<path d="M38.5742 38.4988L94.3019 25.998" stroke="#2C4942" stroke-miterlimit="10"/>
<path d="M38.5742 38.4999L89.3039 18.8613" stroke="#2C4942" stroke-miterlimit="10"/>
<path d="M38.5742 38.4999L83.139 12.6992" stroke="#2C4942" stroke-miterlimit="10"/>
<path d="M38.5742 38.4988L76.0011 7.69727" stroke="#2C4942" stroke-miterlimit="10"/>
<path d="M38.5742 38.4985L68.1016 4.01367" stroke="#2C4942" stroke-miterlimit="10"/>
<path d="M38.5742 38.4984L59.6838 1.75781" stroke="#2C4942" stroke-miterlimit="10"/>
</svg>
