<svg width="280" height="76" viewBox="0 0 280 76" fill="none" xmlns="http://www.w3.org/2000/svg">
<path d="M276.887 5.40894H209.987V72.3087H276.887V5.40894Z" fill="#2C4942"/>
<path d="M141.725 76C149.094 76 156.298 73.8147 162.425 69.7206C168.552 65.6264 173.328 59.8072 176.148 52.9989C178.968 46.1906 179.706 38.6989 178.268 31.4712C176.831 24.2435 173.282 17.6045 168.071 12.3936C162.86 7.18274 156.221 3.6341 148.994 2.19642C141.766 0.758746 134.274 1.49661 127.466 4.31671C120.658 7.13682 114.838 11.9125 110.744 18.0398C106.65 24.1672 104.465 31.3709 104.465 38.7402C104.465 48.6221 108.39 58.0993 115.378 65.0868C122.366 72.0744 131.843 76 141.725 76Z" fill="#2C4942"/>
<path d="M42.0369 0L0 72.3382H84.0639L42.0369 0Z" fill="#2C4942"/>
</svg>
